#!OML:ASF X:\für Bonn\!DataBase\2005_08_12_Daniel\c3d\Daniel.ASF
:FULLY-SPECIFIED
:DEGREES
47
root 18.289 16.5509 0.550538 -731.529 -64.6327 728.339
lowerback 10.3396 -3.05313 -5.23323
upperback 3.45629 -4.811 -3.78754
thorax -2.08071 -2.44885 -0.428447
lowerneck 4.97682 -1.88224 -3.98967
upperneck 5.78177 -3.04692 6.97806
head 1.15432 -1.60353 2.94563
rclavicle -3.1408e-014 4.21423e-014
rhumerus -46.174 13.4752 -101.566
rradius 60.5402
rwrist 6.23845
rhand -18.7413 19.5115
rfingers 7.12502
rthumb 7.55482 -10.3336
lclavicle -3.1408e-014 4.21423e-014
lhumerus -38.5831 2.70267 86.8543
lradius 115.224
lwrist 198.352
lhand -14.6508 15.4304
lfingers 7.12502
lthumb 11.5016 45.0949
rfemur -30.245 -14.0332 10.3993
rtibia 62.7474
rfoot -17.0919 9.16279
rtoes -10.4914
lfemur -2.29667 -13.5531 -27.6764
ltibia 44.4445
lfoot -39.0806 6.21649
ltoes -16.3295
48
root 18.2185 16.5455 0.553043 -731.504 -64.7325 728.282
lowerback 10.1282 -3.17641 -5.31657
upperback 3.47521 -4.96183 -3.7418
thorax -1.92934 -2.52737 -0.333472
lowerneck 4.98918 -1.78549 -3.81273
upperneck 6.0118 -2.91859 6.76223
head 1.21064 -1.53739 2.83869
rclavicle -9.93923e-015 4.6118e-014
rhumerus -46.7134 13.2988 -101.391
rradius 60.7344
rwrist 6.2623
rhand -19.0776 19.3146
rfingers 7.12502
rthumb 7.23026 -10.5419
lclavicle -9.93923e-015 4.6118e-014
lhumerus -38.0537 2.67051 86.8981
lradius 115.246
lwrist 198.359
lhand -14.6464 15.3054
lfingers 7.12502
lthumb 11.5057 44.9696
rfemur -30.7441 -14.3373 10.4814
rtibia 63.0967
rfoot -16.76 9.38038
rtoes -10.9216
lfemur -1.85936 -13.6492 -27.6788
ltibia 44.2288
lfoot -39.231 6.48295
ltoes -16.5121
49
root 18.146 16.5412 0.55446 -731.437 -64.8426 728.194
lowerback 9.90658 -3.31217 -5.37806
upperback 3.49392 -5.12572 -3.69153
thorax -1.77292 -2.61254 -0.246515
lowerneck 4.97176 -1.68751 -3.64852
upperneck 6.24377 -2.78916 6.57081
head 1.27387 -1.47035 2.74274
rclavicle 2.93207e-014 -1.90833e-014
rhumerus -47.2042 13.1125 -101.199
rradius 60.8495
rwrist 6.14895
rhand -19.408 19.1403
rfingers 7.12502
rthumb 6.91136 -10.7268
lclavicle 2.93207e-014 -1.90833e-014
lhumerus -37.4868 2.65602 86.9157
lradius 115.261
lwrist 198.391
lhand -14.6322 15.1573
lfingers 7.12502
lthumb 11.5195 44.8208
rfemur -31.2443 -14.5767 10.5809
rtibia 63.3659
rfoot -16.4827 9.61178
rtoes -11.4271
lfemur -1.41198 -13.7618 -27.6638
ltibia 43.9951
lfoot -39.3779 6.73659
ltoes -16.6555
50
root 18.0722 16.5358 0.5561 -731.41 -64.9638 728.139
lowerback 9.70695 -3.45272 -5.42077
upperback 3.50428 -5.29669 -3.6491
thorax -1.63888 -2.70067 -0.17671
lowerneck 4.98739 -1.58208 -3.43865
upperneck 6.44264 -2.64348 6.31622
head 1.31831 -1.39545 2.6178
rclavicle 7.81224e-014 6.36111e-015
rhumerus -47.6737 12.9519 -100.999
rradius 60.891
rwrist 5.86692
rhand -19.692 18.9942
rfingers 7.12502
rthumb 6.63715 -10.8818
lclavicle 7.81224e-014 6.36111e-015
lhumerus -36.9281 2.61425 86.9032
lradius 115.334
lwrist 198.42
lhand -14.4922 14.9053
lfingers 7.12502
lthumb 11.6545 44.5611
rfemur -31.741 -14.781 10.6591
rtibia 63.5674
rfoot -16.2668 9.86055
rtoes -12.1146
lfemur -0.946921 -13.8635 -27.6692
ltibia 43.7554
lfoot -39.5483 7.02362
ltoes -16.8849
51
root 17.9973 16.5283 0.557843 -731.346 -65.0833 728.054
lowerback 9.50685 -3.60346 -5.42093
upperback 3.50918 -5.4772 -3.60365
thorax -1.51314 -2.79307 -0.127217
lowerneck 4.96926 -1.47317 -3.21265
upperneck 6.65139 -2.4901 6.03015
head 1.37118 -1.31595 2.47986
rclavicle -5.13858e-014 1.59028e-015
rhumerus -48.083 12.6923 -100.751
rradius 60.8121
rwrist 5.55516
rhand -19.9044 18.9291
rfingers 7.12502
rthumb 6.43215 -10.9532
lclavicle -5.13858e-014 1.59028e-015
lhumerus -36.355 2.55789 86.8436
lradius 115.436
lwrist 198.495
lhand -14.3403 14.664
lfingers 7.12502
lthumb 11.801 44.3115
rfemur -32.2421 -14.9656 10.7332
rtibia 63.6841
rfoot -16.1022 10.0931
rtoes -12.8463
lfemur -0.485783 -14.0001 -27.6745
ltibia 43.5155
lfoot -39.7201 7.32808
ltoes -17.0651
52
root 17.9214 16.519 0.558782 -731.317 -65.2208 728.005
lowerback 9.31587 -3.76552 -5.41468
upperback 3.51473 -5.67296 -3.55454
thorax -1.39113 -2.89303 -0.0767034
lowerneck 4.94597 -1.34254 -3.05424
upperneck 6.8398 -2.30971 5.77694
head 1.41948 -1.22434 2.3661
rclavicle 2.98177e-014 -2.54444e-014
rhumerus -48.4088 12.3812 -100.451
rradius 60.6039
rwrist 5.16848
rhand -20.0056 18.8854
rfingers 7.12502
rthumb 6.33441 -10.9999
lclavicle 2.98177e-014 -2.54444e-014
lhumerus -35.784 2.51814 86.7657
lradius 115.595
lwrist 198.557
lhand -14.0986 14.4356
lfingers 7.12502
lthumb 12.034 44.0697
rfemur -32.7387 -15.0938 10.7858
rtibia 63.7162
rfoot -16.0199 10.1959
rtoes -13.7226
lfemur -0.0175706 -14.1011 -27.6804
ltibia 43.2696
lfoot -39.9009 7.60252
ltoes -17.2001
53
root 17.8428 16.5095 0.560099 -731.265 -65.3764 727.933
lowerback 9.12312 -3.92252 -5.36382
upperback 3.50798 -5.85878 -3.50761
thorax -1.28575 -2.98714 -0.0544198
lowerneck 4.97158 -1.21833 -2.88589
upperneck 6.98719 -2.13498 5.50474
head 1.44677 -1.13664 2.24509
rclavicle 1.42131e-014 -8.74653e-015
rhumerus -48.7299 11.9401 -100.108
rradius 60.3015
rwrist 4.72682
rhand -20.0003 18.9196
rfingers 7.12502
rthumb 6.33951 -10.9655
lclavicle 1.42131e-014 -8.74653e-015
lhumerus -35.2182 2.44479 86.6872
lradius 115.77
lwrist 198.617
lhand -13.766 14.2616
lfingers 7.12502
lthumb 12.3548 43.8765
rfemur -33.2343 -15.167 10.8372
rtibia 63.6407
rfoot -15.955 10.1917
rtoes -14.4841
lfemur 0.482495 -14.206 -27.6861
ltibia 43.0006
lfoot -40.1236 7.89957
ltoes -17.3948
54
root 17.7588 16.5018 0.561241 -731.215 -65.5355 727.858
lowerback 8.88258 -4.09744 -5.29849
upperback 3.52721 -6.06311 -3.46943
thorax -1.1289 -3.09211 -0.0539533
lowerneck 4.98103 -1.07837 -2.71189
upperneck 7.11772 -1.9365 5.22089
head 1.47093 -1.03688 2.11969
rclavicle 1.61016e-014 -2.38542e-015
rhumerus -49.0303 11.5261 -99.7747
rradius 59.9853
rwrist 4.259
rhand -19.925 18.902
rfingers 7.12502
rthumb 6.41221 -10.9809
lclavicle 1.61016e-014 -2.38542e-015
lhumerus -34.6145 2.38594 86.5422
lradius 115.963
lwrist 198.697
lhand -13.3921 14.2119
lfingers 7.12502
lthumb 12.7152 43.8048
rfemur -33.7203 -15.1917 10.8735
rtibia 63.4477
rfoot -15.9083 10.1627
rtoes -15.0434
lfemur 1.02477 -14.3048 -27.6831
ltibia 42.6896
lfoot -40.3219 8.19282
ltoes -17.4937
55
root 17.6714 16.4941 0.562107 -731.173 -65.7096 727.787
lowerback 8.64777 -4.26781 -5.21595
upperback 3.5372 -6.26106 -3.42199
thorax -0.985985 -3.19319 -0.054493
lowerneck 4.99277 -0.934683 -2.58508
upperneck 7.24043 -1.73422 4.9447
head 1.49372 -0.936435 2.00597
rclavicle -6.63941e-014 -2.38542e-014
rhumerus -49.3392 11.0458 -99.3853
rradius 59.6064
rwrist 3.78367
rhand -19.7529 18.8515
rfingers 7.12502
rthumb 6.57838 -11.0263
lclavicle -6.63941e-014 -2.38542e-014
lhumerus -33.9986 2.2965 86.4026
lradius 116.141
lwrist 198.852
lhand -12.9574 14.3183
lfingers 7.12502
lthumb 13.1342 43.8846
rfemur -34.1996 -15.1555 10.8941
rtibia 63.1415
rfoot -15.8732 10.1131
rtoes -15.2354
lfemur 1.62026 -14.4109 -27.6891
ltibia 42.3293
lfoot -40.524 8.49305
ltoes -17.6082
56
root 17.5808 16.4878 0.563077 -731.078 -65.8882 727.656
lowerback 8.39316 -4.45577 -5.09497
upperback 3.56143 -6.47765 -3.36575
thorax -0.820254 -3.30392 -0.069545
lowerneck 4.95444 -0.779403 -2.46943
upperneck 7.37626 -1.51435 4.64235
head 1.52926 -0.827039 1.88616
rclavicle 3.22031e-014 3.18055e-014
rhumerus -49.6398 10.573 -98.975
rradius 59.2064
rwrist 3.21758
rhand -19.5386 18.815
rfingers 7.12502
rthumb 6.78525 -11.0562
lclavicle 3.22031e-014 3.18055e-014
lhumerus -33.3162 2.1744 86.2024
lradius 116.346
lwrist 198.988
lhand -12.4294 14.3695
lfingers 7.12502
lthumb 13.6431 43.9024
rfemur -34.6633 -15.0924 10.9238
rtibia 62.7248
rfoot -15.8832 9.98573
rtoes -15.286
lfemur 2.24228 -14.4915 -27.6535
ltibia 41.9276
lfoot -40.7372 8.74855
ltoes -17.6951
